<svg width="8" height="11" viewBox="0 0 8 11" fill="none" xmlns="http://www.w3.org/2000/svg">
<path d="M6.77754 9.66675C6.92988 9.81909 7.00605 10.0007 7.00605 10.2117C7.00605 10.4109 6.92988 10.5808 6.77754 10.7214C6.63691 10.8738 6.46113 10.95 6.25019 10.95C6.03926 10.95 5.86348 10.8738 5.72285 10.7214L1.22285 6.22144C1.07051 6.08081 0.994335 5.91089 0.994335 5.71167C0.994335 5.50073 1.07051 5.31909 1.22285 5.16675L5.72285 0.666748C5.86348 0.526123 6.03926 0.455811 6.25019 0.455811C6.46113 0.455811 6.63691 0.526123 6.77754 0.666748C6.92988 0.819092 7.00605 1.00073 7.00605 1.21167C7.00605 1.41089 6.92988 1.58081 6.77754 1.72144L2.80488 5.69409L6.77754 9.66675Z" fill="#111111"/>
</svg>
