<svg width="36" height="35" viewBox="0 0 36 35" fill="none" xmlns="http://www.w3.org/2000/svg">
<path d="M5.12305 10.85L18.0001 18.3021L30.7897 10.8937" stroke="#111111" stroke-width="2" stroke-linecap="round" stroke-linejoin="round"/>
<path d="M18.0001 31.5147V18.2876" stroke="#111111" stroke-width="2" stroke-linecap="round" stroke-linejoin="round"/>
<path d="M14.9813 3.61675L7.19378 7.94804C5.4292 8.92513 3.98547 11.3751 3.98547 13.3876V21.6272C3.98547 23.6397 5.4292 26.0897 7.19378 27.0668L14.9813 31.3981C16.6438 32.3168 19.3708 32.3168 21.0333 31.3981L28.8209 27.0668C30.5855 26.0897 32.0292 23.6397 32.0292 21.6272V13.3876C32.0292 11.3751 30.5855 8.92513 28.8209 7.94804L21.0333 3.61675C19.3563 2.68341 16.6438 2.68341 14.9813 3.61675Z" stroke="#111111" stroke-width="2" stroke-linecap="round" stroke-linejoin="round"/>
<path d="M25.2917 19.3085V13.971L11.4521 5.97931" stroke="#111111" stroke-width="2" stroke-linecap="round" stroke-linejoin="round"/>
</svg>
