<svg width="36" height="35" viewBox="0 0 36 35" fill="none" xmlns="http://www.w3.org/2000/svg">
<path d="M12.7208 17.5L16.2354 21.0292L23.2792 13.9708" stroke="#111111" stroke-width="2" stroke-linecap="round" stroke-linejoin="round"/>
<path d="M16.1771 3.57292C17.1833 2.71251 18.8313 2.71251 19.8521 3.57292L22.1563 5.55626C22.5938 5.93542 23.4104 6.24167 23.9938 6.24167H26.4729C28.0187 6.24167 29.2875 7.51042 29.2875 9.05626V11.5354C29.2875 12.1042 29.5937 12.9354 29.9729 13.3729L31.9562 15.6771C32.8167 16.6833 32.8167 18.3313 31.9562 19.3521L29.9729 21.6563C29.5937 22.0938 29.2875 22.9104 29.2875 23.4938V25.9729C29.2875 27.5188 28.0187 28.7875 26.4729 28.7875H23.9938C23.425 28.7875 22.5938 29.0938 22.1563 29.4729L19.8521 31.4563C18.8458 32.3167 17.1979 32.3167 16.1771 31.4563L13.8729 29.4729C13.4354 29.0938 12.6187 28.7875 12.0354 28.7875H9.5125C7.96667 28.7875 6.69792 27.5188 6.69792 25.9729V23.4792C6.69792 22.9104 6.39167 22.0938 6.02708 21.6563L4.05833 19.3375C3.2125 18.3313 3.2125 16.6979 4.05833 15.6917L6.02708 13.3729C6.39167 12.9354 6.69792 12.1188 6.69792 11.55V9.04167C6.69792 7.49584 7.96667 6.22709 9.5125 6.22709H12.0354C12.6042 6.22709 13.4354 5.92084 13.8729 5.54167L16.1771 3.57292Z" stroke="#111111" stroke-width="2" stroke-linecap="round" stroke-linejoin="round"/>
</svg>
