<svg width="36" height="35" viewBox="0 0 36 35" fill="none" xmlns="http://www.w3.org/2000/svg">
<path d="M25.2917 13.125C25.2917 18.7687 20.3917 23.3333 14.3542 23.3333L12.9979 24.9667L12.1958 25.9292C11.5104 26.7459 10.1979 26.5708 9.74582 25.5937L7.79166 21.2916C5.13749 19.425 3.41666 16.4646 3.41666 13.125C3.41666 7.48124 8.31666 2.91666 14.3542 2.91666C18.7583 2.91666 22.5646 5.35208 24.2708 8.85208C24.9271 10.15 25.2917 11.5937 25.2917 13.125Z" stroke="#111111" stroke-width="2" stroke-linecap="round" stroke-linejoin="round"/>
<path d="M32.5834 18.7542C32.5834 22.0938 30.8626 25.0543 28.2084 26.9209L26.2543 31.223C25.8022 32.2 24.4897 32.3897 23.8042 31.5584L21.6459 28.9626C18.1168 28.9626 14.9668 27.4022 12.998 24.9667L14.3543 23.3334C20.3918 23.3334 25.2918 18.7688 25.2918 13.1251C25.2918 11.5938 24.9272 10.1501 24.2709 8.85217C29.0397 9.94592 32.5834 13.9709 32.5834 18.7542Z" stroke="#111111" stroke-width="2" stroke-linecap="round" stroke-linejoin="round"/>
<path d="M10.7083 13.125H18" stroke="#111111" stroke-width="2" stroke-linecap="round" stroke-linejoin="round"/>
</svg>
