<svg width="14" height="14" viewBox="0 0 14 14" fill="none" xmlns="http://www.w3.org/2000/svg">
<path fill-rule="evenodd" clip-rule="evenodd" d="M9.1875 3.7975C9.1875 2.51805 8.08822 1.49325 6.78558 1.61963L6.78399 1.61978C5.72148 1.71895 4.8125 2.7956 4.8125 3.90834V4.47417C4.8125 4.7158 4.61662 4.91167 4.375 4.91167C4.13338 4.91167 3.9375 4.7158 3.9375 4.47417V3.90834C3.9375 2.39633 5.13978 0.894905 6.70188 0.748638C8.52556 0.572175 10.0625 2.00889 10.0625 3.7975V4.6025C10.0625 4.84413 9.86662 5.04 9.625 5.04C9.38338 5.04 9.1875 4.84413 9.1875 4.6025V3.7975Z" fill="white"/>
<path fill-rule="evenodd" clip-rule="evenodd" d="M1.96787 5.1434C2.48436 4.52935 3.36987 4.22919 4.66664 4.22919H9.33331C10.6301 4.22919 11.5156 4.52935 12.0321 5.1434C12.5444 5.7525 12.5924 6.55302 12.5098 7.29897L12.5091 7.30513L12.0721 10.8014C12.0076 11.4001 11.8565 12.0557 11.3223 12.5439C10.7908 13.0294 9.96731 13.2709 8.74998 13.2709H5.24997C4.03265 13.2709 3.2092 13.0294 2.6777 12.5439C2.1434 12.0557 1.99237 11.4 1.92788 10.8014L1.49008 7.29898C1.40754 6.55303 1.45555 5.7525 1.96787 5.1434ZM2.35949 7.19972L2.79755 10.7042C2.8558 11.2479 2.97646 11.6316 3.26787 11.8979C3.56325 12.1677 4.1223 12.3959 5.24997 12.3959H8.74998C9.87765 12.3959 10.4367 12.1677 10.7321 11.8979C11.0235 11.6316 11.1442 11.2479 11.2025 10.7042L11.2033 10.6966L11.6405 7.19965C11.7149 6.52386 11.6372 6.03329 11.3625 5.70664C11.0914 5.38444 10.5274 5.10419 9.33331 5.10419H4.66664C3.47258 5.10419 2.9085 5.38444 2.63749 5.70664C2.36273 6.0333 2.28509 6.5239 2.35949 7.19972Z" fill="white"/>
<path fill-rule="evenodd" clip-rule="evenodd" d="M8.45569 7.00002C8.45569 6.67785 8.71686 6.41669 9.03902 6.41669H9.04426C9.36643 6.41669 9.62759 6.67785 9.62759 7.00002C9.62759 7.32219 9.36643 7.58335 9.04426 7.58335H9.03902C8.71686 7.58335 8.45569 7.32219 8.45569 7.00002Z" fill="white"/>
<path fill-rule="evenodd" clip-rule="evenodd" d="M4.3718 7.00002C4.3718 6.67785 4.63296 6.41669 4.95513 6.41669H4.96037C5.28253 6.41669 5.5437 6.67785 5.5437 7.00002C5.5437 7.32219 5.28253 7.58335 4.96037 7.58335H4.95513C4.63296 7.58335 4.3718 7.32219 4.3718 7.00002Z" fill="white"/>
</svg>
