<svg width="30" height="30" viewBox="0 0 30 30" fill="none" xmlns="http://www.w3.org/2000/svg">
<circle cx="15" cy="15" r="14.5" stroke="#555555"/>
<path d="M20.6699 10.1753C20.1855 10.4746 19.656 10.6861 19.1039 10.801C18.6347 10.2878 17.9839 9.99819 17.3039 10.0001C15.9645 9.98959 14.8669 11.1062 14.8439 12.5028C14.8445 12.6967 14.8666 12.8899 14.9099 13.0785C12.9372 12.9814 11.0949 12.023 9.83392 10.4381C9.61823 10.8171 9.50232 11.2488 9.49794 11.6895C9.49799 12.5392 9.91147 13.3309 10.596 13.7918C10.2051 13.7786 9.82268 13.6692 9.47994 13.4727C9.47994 13.4727 9.47994 13.4727 9.47994 13.504C9.47602 14.7244 10.3048 15.7753 11.454 16.0068C11.0917 16.1075 10.7124 16.1224 10.344 16.0506C10.6753 17.0844 11.5968 17.787 12.642 17.8026C11.7719 18.5081 10.7021 18.8932 9.59998 18.8975C9.39945 18.8973 9.19908 18.8848 9 18.86C10.1291 19.6048 11.4379 19.9998 12.774 19.9988C16.5841 20.0714 19.7292 16.9092 19.7989 12.9359C19.7996 12.8938 19.8 12.8517 19.8 12.8095C19.8 12.701 19.8 12.5926 19.8 12.4841C20.2702 12.1247 20.6764 11.6821 21 11.1764C20.5496 11.3821 20.0724 11.517 19.584 11.5769C20.0976 11.2633 20.4838 10.7649 20.6699 10.1753Z" fill="#555555"/>
</svg>
