<svg width="30" height="30" viewBox="0 0 30 30" fill="none" xmlns="http://www.w3.org/2000/svg">
<circle cx="15" cy="15" r="14.5" stroke="#555555"/>
<path d="M18.6 9H11.4C10.0745 9 9 10.0745 9 11.4V18.6C9 19.9255 10.0745 21 11.4 21H18.6C19.9255 21 21 19.9255 21 18.6V11.4C21.0001 10.0745 19.9255 9 18.6 9ZM17.4 10.8H19.2V12.6H17.4V10.8ZM15 12.6001C16.3255 12.6001 17.4 13.6746 17.4 15.0001C17.4 16.3255 16.3255 17.4 15 17.4C13.6745 17.4 12.6 16.3255 12.6 15.0001C12.6 13.6746 13.6745 12.6001 15 12.6001ZM19.8 18.6001C19.8 19.2628 19.2627 19.8001 18.6 19.8001H11.4C10.7373 19.8001 10.2 19.2628 10.2 18.6001V14.4H11.46C11.0996 16.3553 12.3926 18.2325 14.3479 18.5929C16.3032 18.9533 18.1804 17.6603 18.5408 15.705C18.5836 15.4725 18.6035 15.2364 18.6 15.0001C18.597 14.7987 18.577 14.598 18.54 14.4001H19.8V18.6001H19.8Z" fill="#555555"/>
</svg>
