<svg width="30" height="30" viewBox="0 0 30 30" fill="none" xmlns="http://www.w3.org/2000/svg">
<circle cx="15" cy="15" r="14.5" stroke="#555555"/>
<path d="M14.2985 13.0897H14.5132C14.9883 13.0897 15.3742 12.7061 15.3771 12.231V10.8331C15.3685 10.3641 14.9874 9.98765 14.5184 9.98486H14.3037C13.8286 9.98486 13.4427 10.3684 13.4398 10.8435V12.2415C13.4484 12.7104 13.8295 13.0869 14.2985 13.0897ZM14.0838 10.7807C14.084 10.6015 14.2294 10.4562 14.4086 10.4563C14.5878 10.4564 14.733 10.6016 14.733 10.7807V12.2834C14.7329 12.4626 14.5875 12.6079 14.4082 12.6078C14.2291 12.6076 14.084 12.4625 14.0838 12.2834V10.7807Z" fill="#555555"/>
<path d="M11.7487 13.0367H12.5079V11.3665L13.3718 9H12.665L12.1414 10.5707L11.6178 9H10.8377L11.7592 11.3665L11.7487 13.0367Z" fill="#555555"/>
<path d="M16.4609 13.0897C16.7665 13.0603 17.0528 12.9272 17.2724 12.7127V13.0373H17.9007V9.98491H17.2724V12.3514C17.2724 12.3514 17.0577 12.6027 16.8535 12.6027C16.6493 12.6027 16.6389 12.4404 16.6389 12.4404V9.98486H15.9739V12.6708C16.0102 12.9117 16.2173 13.0898 16.4609 13.0897Z" fill="#555555"/>
<path d="M16.0315 16.5967C15.9054 16.6028 15.7876 16.6617 15.7069 16.759V18.9266C15.7897 19.0182 15.908 19.0697 16.0315 19.068C16.3562 19.068 16.3562 18.7067 16.3562 18.7067V16.958C16.3562 16.9579 16.2986 16.5967 16.0315 16.5967Z" fill="#555555"/>
<path d="M18.5185 16.5967C18.1938 16.5967 18.1938 16.9579 18.1938 16.9579V17.4239H18.8431V16.9579C18.8431 16.9579 18.8431 16.5967 18.5185 16.5967Z" fill="#555555"/>
<path d="M18.7604 13.7582C18.7513 13.7584 18.7422 13.7586 18.7331 13.7589H18.7227C18.7227 13.7589 16.7488 13.6489 14.7592 13.6489C12.7697 13.6489 10.7853 13.7536 10.7853 13.7536C9.91834 13.7247 9.19204 14.4041 9.16315 15.2711C9.16256 15.2888 9.16225 15.3066 9.16229 15.3243C9.06232 15.983 9.00805 16.6478 9 17.3139C9.00738 17.987 9.0616 18.6588 9.16229 19.3244C9.1618 20.1919 9.86466 20.8955 10.7321 20.896C10.7499 20.896 10.7676 20.8957 10.7854 20.8951C10.7854 20.8951 12.7383 20.9998 14.7593 20.9998C16.7803 20.9998 18.7332 20.8951 18.7332 20.8951C19.6002 20.9241 20.3265 20.2447 20.3554 19.3777C20.356 19.3599 20.3563 19.3422 20.3562 19.3244C20.4564 18.6588 20.5106 17.987 20.5185 17.3139C20.5119 16.6407 20.4576 15.9689 20.3562 15.3034C20.3422 14.4361 19.6278 13.7442 18.7604 13.7582ZM12.4084 15.5128H11.6178V19.5862H10.8377V15.5128H10.0471V14.8426H12.4241L12.4084 15.5128ZM14.4661 19.5862H13.8116V19.2773C13.5889 19.4847 13.3033 19.6119 13.0001 19.6386C12.7565 19.6437 12.5475 19.4661 12.5132 19.2249V16.0259H13.1886V19.0155C13.1886 19.0155 13.1886 19.1726 13.4032 19.1726C13.6179 19.1726 13.8378 18.9161 13.8378 18.9161V16.0259H14.487L14.4661 19.5862ZM16.4085 19.6386C16.1331 19.6411 15.8728 19.5129 15.7069 19.293V19.5862H15.0001V14.8427H15.7017V16.382C15.8813 16.1786 16.1328 16.0528 16.4033 16.0312C16.8378 16.0312 17.0001 16.3925 17.0001 16.8584L17.0054 18.8114C17.0054 18.8114 17.0054 19.6386 16.4085 19.6386ZM19.5447 17.9527H18.1938V18.7276C18.1938 18.7276 18.1938 19.0888 18.5185 19.0888C18.8431 19.0888 18.8431 18.7276 18.8431 18.7276V18.3611H19.5447V18.9265C19.4508 19.3798 19.0319 19.6906 18.5708 19.649C18.0933 19.692 17.653 19.3882 17.5237 18.9265V16.9055C17.5383 16.4026 17.9578 16.0067 18.4607 16.0213C18.4976 16.0223 18.5344 16.0256 18.5708 16.0312C19.0374 15.9644 19.4698 16.2885 19.5366 16.755C19.5438 16.8048 19.5465 16.8552 19.5447 16.9055V17.9527H19.5447Z" fill="#555555"/>
</svg>
