<svg width="30" height="30" viewBox="0 0 30 30" fill="none" xmlns="http://www.w3.org/2000/svg">
<circle cx="15" cy="15" r="14.5" stroke="#555555"/>
<path d="M13.9886 20.9999C12.9308 20.9999 11.9163 20.5965 11.1682 19.8784C10.4202 19.1603 10 18.1863 10 17.1708C10 16.1552 10.4202 15.1813 11.1682 14.4632C11.9163 13.7451 12.9308 13.3417 13.9886 13.3417H14.9625V15.2104H13.9886C13.5841 15.2104 13.1886 15.3256 12.8522 15.5414C12.5159 15.7571 12.2537 16.0638 12.0989 16.4226C11.9441 16.7814 11.9036 17.1762 11.9825 17.5571C12.0614 17.9381 12.2562 18.2879 12.5423 18.5626C12.8283 18.8372 13.1928 19.0242 13.5896 19.1C13.9864 19.1757 14.3976 19.1368 14.7714 18.9882C15.1452 18.8396 15.4646 18.5879 15.6894 18.265C15.9141 17.9421 16.0341 17.5624 16.0341 17.1741V8.99988H17.9807V9.9337C17.9807 10.4545 18.1962 10.9539 18.5798 11.3222C18.9634 11.6904 19.4836 11.8973 20.0261 11.8973H21V13.7628H20.0193C19.2984 13.7638 18.591 13.5751 17.9739 13.2173V17.1708C17.973 18.1855 17.5529 19.1584 16.8058 19.8763C16.0587 20.5941 15.0456 20.9981 13.9886 20.9999Z" fill="#555555"/>
</svg>
