<svg width="30" height="30" viewBox="0 0 30 30" fill="none" xmlns="http://www.w3.org/2000/svg">
<circle cx="15" cy="15" r="14.5" stroke="#555555"/>
<path d="M14.8517 9.00102L14.0501 9.09674C13.5464 9.18721 13.0577 9.34214 12.5972 9.55732C11.5464 10.0853 10.7207 10.946 10.2613 11.9918C10.1994 12.1879 10.1513 12.3877 10.1173 12.5899C9.7663 13.7809 10.2194 15.0554 11.2571 15.796C11.4136 15.8857 11.7768 16.0533 11.8833 15.8319C11.9323 15.6962 11.966 15.5558 11.9835 15.4132C12.0439 15.2934 12.078 15.1632 12.0837 15.0304C12.0461 14.833 11.8269 14.7134 11.733 14.5519C11.5786 14.2263 11.4813 13.8787 11.4449 13.523V13.3495C11.4914 11.881 12.5697 10.6275 14.0689 10.299C14.5379 10.1779 15.0268 10.1434 15.5093 10.1973L16.2044 10.3109C16.9989 10.5091 17.6558 11.0418 17.9892 11.7585C18.2078 12.3726 18.2511 13.0312 18.1145 13.6666C18.0456 13.9417 18.0581 14.181 17.9704 14.4322C17.651 15.3594 17.1814 16.2267 16.123 16.454C15.5474 16.5977 14.9496 16.3109 14.7265 15.7841C14.6471 15.6239 14.6188 15.4451 14.6451 15.2697C14.8267 14.516 15.096 13.846 15.2713 13.0924C15.4873 12.5347 15.1892 11.9154 14.6053 11.709C14.5752 11.6983 14.5445 11.6889 14.5135 11.6808C13.7871 11.5133 13.2297 12.1593 13.0356 12.578C12.8541 13.0214 12.8106 13.5053 12.9104 13.9717C13.0161 14.1741 13.0919 14.3895 13.1358 14.6117C12.998 15.2099 12.8352 15.8081 12.6661 16.4062C12.497 17.0043 12.3906 17.6025 12.2152 18.2007C12.1338 18.4638 12.1401 18.745 12.0712 19.0201V19.4209C12.0278 19.7379 12.0427 20.0598 12.1151 20.3719C12.1527 20.5335 12.1151 20.7309 12.1777 20.8505C12.175 20.9035 12.1904 20.956 12.2216 21C12.4784 21 12.8478 20.348 12.9606 20.1626C13.2045 19.792 13.4141 19.4017 13.5868 18.9962C13.7559 18.6193 13.7809 18.2007 13.9125 17.7999C14.045 17.4697 14.1395 17.1267 14.1942 16.777C14.2755 16.9468 14.4116 17.0873 14.5825 17.1778C15.1837 17.5839 15.9362 17.7293 16.6554 17.5785C17.5299 17.4163 18.3156 16.9626 18.8723 16.2985C19.2508 15.8066 19.5427 15.2591 19.7365 14.6774C19.843 14.3784 19.8618 14.0434 19.9432 13.7264C20.0781 12.9505 19.9714 12.1539 19.6363 11.4355C18.9161 9.87432 17.3505 8.96514 14.8517 9.00102Z" fill="#555555"/>
</svg>
