<svg width="30" height="30" viewBox="0 0 30 30" fill="none" xmlns="http://www.w3.org/2000/svg">
<circle cx="15" cy="15" r="14.5" stroke="#555555"/>
<path d="M20.2513 16.9764C19.8961 16.8756 19.5672 16.6988 19.2877 16.4584C19.0083 16.2179 18.7849 15.9196 18.6331 15.5843L18.7672 15.5271C19.6193 15.2125 19.8204 14.7262 19.8683 14.4592C19.9014 14.2795 19.8821 14.0942 19.8125 13.9251C19.7429 13.7561 19.626 13.6105 19.4757 13.5058C19.3422 13.4004 19.1881 13.324 19.0232 13.2813C18.8584 13.2386 18.6864 13.2306 18.5182 13.2578C18.6195 12.6806 18.5858 12.0878 18.4197 11.5256C18.2537 10.9634 17.9597 10.4468 17.5608 10.0161C17.0144 9.50396 16.3265 9.16666 15.5858 9.04769C14.8451 8.92872 14.0856 9.03355 13.4053 9.34863C11.4904 10.3021 11.385 12.0469 11.4904 13.2769C11.2222 13.2239 10.9438 13.2678 10.7052 13.4009C10.5639 13.4759 10.4414 13.5817 10.3468 13.7105C10.2523 13.8393 10.1883 13.9877 10.1595 14.1446C9.9967 15.098 10.8201 15.365 11.2127 15.5176L11.385 15.5748C11.2446 15.8989 11.0334 16.1877 10.7667 16.4203C10.5 16.6529 10.1847 16.8233 9.84351 16.9192C9.67831 16.9543 9.52303 17.0255 9.3889 17.1278C9.25476 17.23 9.14514 17.3607 9.06795 17.5103C8.97735 17.7368 8.97735 17.9893 9.06795 18.2159C9.22122 18.483 9.43711 18.7092 9.69721 18.8753C9.9573 19.0413 10.2539 19.1422 10.5616 19.1693C10.6861 19.7033 10.9255 20.1228 11.8255 19.9321C12.0724 19.8874 12.3254 19.8874 12.5723 19.9321C12.7253 20.0052 12.8698 20.0947 13.0032 20.1991C13.5773 20.6676 14.2831 20.9474 15.0234 21C15.7359 20.988 16.4184 20.7127 16.9384 20.2277C17.0962 20.0689 17.2969 19.9591 17.5162 19.9117C17.7355 19.8643 17.9638 19.8813 18.1735 19.9607C18.4387 20.0215 18.7172 19.9768 18.9497 19.8361C19.1822 19.6954 19.3503 19.4698 19.4183 19.2075C20.8449 18.8928 20.9981 18.1968 20.9981 17.9012C21.0126 17.6819 20.9439 17.4652 20.8056 17.2939C20.6673 17.1227 20.4695 17.0093 20.2513 16.9764ZM12.4766 15.9657C12.5475 15.8353 12.5901 15.6916 12.6016 15.5437C12.6132 15.3959 12.5934 15.2473 12.5436 15.1076C12.4645 14.9258 12.335 14.7703 12.1702 14.6594C12.24 14.6413 12.3052 14.6088 12.3617 14.5641C12.6968 14.3353 12.6681 13.8681 12.6489 13.2674C12.601 12.3139 12.5532 11.103 13.8936 10.4737C14.3493 10.2755 14.8527 10.2124 15.3435 10.2918C15.8343 10.3713 16.2916 10.5901 16.6607 10.9219C16.9477 11.2547 17.154 11.6488 17.2635 12.0737C17.3731 12.4986 17.3831 12.9429 17.2927 13.3723C17.2927 13.9157 17.2256 14.3925 17.6086 14.5736C17.6667 14.6098 17.7321 14.6326 17.8001 14.6404C17.6179 14.7476 17.4765 14.9119 17.398 15.1076C17.3514 15.303 17.347 15.5059 17.3849 15.7032C17.4229 15.9004 17.5024 16.0874 17.6182 16.2517C17.9711 16.9526 18.5285 17.5308 19.2172 17.9108H19.1023C18.9162 17.9023 18.7331 17.9599 18.5858 18.0734C18.4384 18.187 18.3364 18.349 18.298 18.5305C18.3003 18.5686 18.3003 18.6068 18.298 18.6449C17.9033 18.5673 17.496 18.5811 17.1075 18.6852C16.719 18.7894 16.3597 18.9811 16.0575 19.2456C15.4352 19.6842 14.9947 19.9989 13.7596 19.1217C13.3982 18.7968 12.9342 18.6079 12.4478 18.5877C12.201 18.5952 11.9548 18.6175 11.7106 18.6545C11.6897 18.5289 11.651 18.4069 11.5957 18.2922C11.5143 18.1719 11.4045 18.0734 11.2759 18.0053C11.1474 17.9371 11.004 17.9014 10.8584 17.9012H10.7244C11.1316 17.7117 11.4965 17.4427 11.7974 17.1103C12.0984 16.7778 12.3293 16.3886 12.4766 15.9657Z" fill="#555555"/>
</svg>
